<svg width="1839" height="433" viewBox="0 0 1839 433" fill="none" xmlns="http://www.w3.org/2000/svg">
<path d="M1226.31 243.307C1226.31 248.472 1225.91 254.433 1225.12 260.393H1069.75C1074.12 296.552 1092.8 313.638 1117.83 313.638C1141.28 313.638 1152.8 303.704 1160.35 286.221H1221.54C1207.24 331.916 1169.09 354.962 1117.43 354.962C1050.28 354.962 1007.77 308.472 1007.77 242.115C1007.77 175.757 1051.87 129.665 1117.43 129.665C1184.19 129.665 1226.31 175.36 1226.31 243.307ZM1117.43 170.989C1093.2 170.989 1075.32 186.088 1070.15 219.863H1164.32C1161.14 189.267 1142.87 170.989 1117.43 170.989Z" fill="#E8FF3F"/>
<path d="M928.604 182.115V134.433H989.001V346.221C989.001 411.386 932.975 432.843 882.909 432.843C832.048 432.843 783.968 410.989 778.008 361.32H839.2C843.571 381.585 861.452 391.519 882.909 391.519C908.736 391.519 928.604 377.611 928.604 347.413V301.32C916.684 328.34 890.458 348.207 857.081 348.207C803.836 348.207 768.074 303.704 768.074 238.936C768.074 174.168 804.233 129.665 857.081 129.665C895.227 129.665 919.068 153.903 928.604 182.115ZM880.525 306.883C913.107 306.883 930.988 281.452 930.988 238.936C930.988 196.419 913.107 170.989 880.525 170.989C847.544 170.989 830.061 196.419 830.061 238.936C830.061 281.452 847.544 306.883 880.525 306.883Z" fill="#E8FF3F"/>
<path d="M685.822 257.214V134.433H746.617V350.194H686.617V307.678C676.683 333.505 656.418 354.962 618.67 354.962C568.603 354.962 547.544 318.803 547.544 271.121V270.327V134.433H608.339V257.214V258.009C608.339 295.36 622.246 312.446 647.279 312.446C672.709 312.446 685.822 294.168 685.822 257.214Z" fill="#E8FF3F"/>
<path d="M421.502 129.665C488.654 129.665 520.84 165.823 520.84 214.3V215.095V350.194H460.84V309.664C448.522 335.492 429.052 354.962 388.919 354.962C347.197 354.962 313.82 326.353 313.82 284.631C313.82 235.36 360.707 223.042 403.224 219.068L460.045 213.506V210.724V209.929C460.045 188.075 447.33 170.989 421.502 170.989C397.661 170.989 384.946 184.896 382.562 199.996H321.37C326.932 155.89 366.668 129.665 421.502 129.665ZM412.76 318.406C443.754 318.406 460.045 292.181 460.045 258.406V249.664L425.475 253.241C400.84 256.022 375.807 260.393 375.807 284.631C375.807 305.691 392.098 318.406 412.76 318.406Z" fill="#E8FF3F"/>
<path d="M137.483 229.402V179.336H295.232V350.196H243.179V278.673C230.861 315.627 202.252 354.965 140.265 354.965C67.1524 354.965 0.00012207 297.349 0.00012207 199.203C0.00012207 104.236 61.5895 43.4417 149.801 43.4417C223.311 43.4417 272.98 78.4085 290.861 142.779H225.298C213.775 112.581 189.536 93.1105 149.801 93.1105C98.1457 93.1105 64.7683 134.832 64.7683 199.203C64.7683 263.971 99.3378 305.296 152.583 305.296C199.47 305.296 231.656 277.481 233.245 229.402H137.483Z" fill="#E8FF3F"/>
<path d="M1723.11 0C1758.19 24.7507 1747.19 48.1211 1747.19 48.1211C1793.27 48.1213 1791.89 79.0732 1791.89 79.0732L1837.64 79.4043V79.4121C1844.53 111.043 1825.26 148.852 1782.61 143.36C1739.97 137.853 1709.7 168.789 1709.7 168.789L1653.62 99.9902C1653.68 99.9362 1653.75 99.8742 1653.82 99.8125L1653.61 99.9902H1653.62C1649.72 103.361 1645.64 106.662 1641.36 109.878L1645.15 106.654L1637.39 112.784C1638.74 111.821 1640.06 110.852 1641.37 109.871L1637.94 112.786L1668.03 223.081L1601.08 349.704H1555.82L1581.42 286.705C1561.6 282.664 1543.24 280.665 1526.28 280.287C1470.88 279.069 1418.41 305.07 1385.61 349.712H1319.79L1417.25 203.938L1474.18 203.112L1287.44 154.459V154.443C1291.44 154.089 1336.59 154.443 1501.95 154.443C1560.13 154.443 1604.34 136.477 1637.36 112.809C1618.52 116.658 1618.45 97.4821 1618.45 97.376H1630.8C1625.4 85.0498 1636.17 71.9536 1636.2 71.9229L1653.82 99.8047C1704.99 55.3706 1723.11 0 1723.11 0ZM1757.35 66.5313C1750.11 66.5313 1744.23 72.4011 1744.23 79.6436C1744.23 80.4426 1744.3 81.2248 1744.44 81.9844H1770.26C1770.4 81.2248 1770.47 80.4426 1770.47 79.6436C1770.47 72.4013 1764.6 66.5315 1757.35 66.5313Z" fill="#E8FF3F"/>
</svg>
